<svg id="Layer_1" data-name="Layer 1" xmlns="http://www.w3.org/2000/svg" width="2.19in" height="0.68in" viewBox="0 0 157.49 49.17">
  <title>logo</title>
  <g>
    <path d="M9.89,1.39,19.33,28,28.72,1.39h10V38.14h-7.6v-10l.76-17.34L21.91,38.14h-5.2L6.81,10.78l.76,17.31V38.14H0V1.39Z" fill="#fff"/>
    <path d="M55,27.81l5-17h7.83l-11,31.55-.61,1.43q-2.45,5.36-8.07,5.36A11.44,11.44,0,0,1,45,48.69V43.16l1.11,0a6,6,0,0,0,3.09-.63,4.17,4.17,0,0,0,1.6-2.09l.86-2.25L42.07,10.83h7.85Z" fill="#fff"/>
    <path d="M90.28,28.49a3.88,3.88,0,0,0-1.51-3.29,20.07,20.07,0,0,0-5.46-2.42,39.18,39.18,0,0,1-6.23-2.51q-6.26-3.39-6.26-9.11A8.89,8.89,0,0,1,72.5,5.84,10.92,10.92,0,0,1,77.32,2.2,18,18,0,0,1,84.37.88a16.52,16.52,0,0,1,7,1.43,11.15,11.15,0,0,1,4.78,4,10.54,10.54,0,0,1,1.71,5.91H90.3a4.91,4.91,0,0,0-1.59-3.92,6.48,6.48,0,0,0-4.46-1.4,7,7,0,0,0-4.32,1.17,3.69,3.69,0,0,0-1.54,3.09,3.52,3.52,0,0,0,1.81,3,20.3,20.3,0,0,0,5.31,2.28Q92,18.4,94.92,21.28a9.57,9.57,0,0,1,3,7.16,8.87,8.87,0,0,1-3.61,7.49q-3.61,2.72-9.72,2.71a18.81,18.81,0,0,1-7.72-1.55,12.29,12.29,0,0,1-5.32-4.25,10.9,10.9,0,0,1-1.83-6.26h7.6q0,6.08,7.27,6.08a7.1,7.1,0,0,0,4.22-1.1A3.56,3.56,0,0,0,90.28,28.49Z" fill="#fff"/>
    <path d="M110.22,38.14H102.9V10.83h7.32Z" fill="#fff"/>
    <path d="M125,4.11v6.72h4.67v5.35H125V29.81a3.24,3.24,0,0,0,.58,2.17,2.91,2.91,0,0,0,2.22.65,11.57,11.57,0,0,0,2.15-.17V38a15,15,0,0,1-4.42.66q-7.68,0-7.83-7.75V16.18h-4V10.83h4V4.11Z" fill="#fff"/>
    <path d="M146.26,38.64A13.41,13.41,0,0,1,136.48,35a13.09,13.09,0,0,1-3.77-9.82v-.71a16.54,16.54,0,0,1,1.59-7.36,11.68,11.68,0,0,1,4.5-5,12.63,12.63,0,0,1,6.65-1.76,11.31,11.31,0,0,1,8.82,3.54q3.22,3.53,3.22,10v3H140.1a6.84,6.84,0,0,0,2.13,4.3,6.49,6.49,0,0,0,4.51,1.61,7.9,7.9,0,0,0,6.59-3l3.58,4a10.83,10.83,0,0,1-4.44,3.62A14.54,14.54,0,0,1,146.26,38.64Zm-.83-22.44a4.55,4.55,0,0,0-3.52,1.47,7.55,7.55,0,0,0-1.73,4.21h10.14V21.3A5.44,5.44,0,0,0,149,17.53,4.73,4.73,0,0,0,145.43,16.2Z" fill="#fff"/>
  </g>
  <path d="M102.47,3.76a3.61,3.61,0,0,1,1.1-2.7,4.73,4.73,0,0,1,6,0,3.58,3.58,0,0,1,1.11,2.7,3.6,3.6,0,0,1-1.13,2.73,4.14,4.14,0,0,1-3,1.06,4.18,4.18,0,0,1-3-1.06A3.59,3.59,0,0,1,102.47,3.76Z" fill="#ff9000"/>
</svg>
